ply
format ascii 1.0
comment VCGLIB generated
element vertex 20
property float x
property float y
property float z
element face 28
property list uchar int vertex_indices
end_header
-1.387778e-14 -2.775557e-14 -3.469436e-15 
8.742268e-07 2.622683e-06 9.99999 
9.999989 17.32051 9.999985 
9.99999 17.32051 14.99998 
39.99995 69.28202 14.99997 
39.99995 69.28202 -2.166737e-05 
79.99995 2.360414e-05 9.999983 
8.742268e-07 2.622683e-06 9.99999 
79.99995 2.098145e-05 -6.993819e-06 
0 0 0 
79.99995 2.098145e-05 -6.993819e-06 
69.99995 17.32053 9.999979 
69.99995 17.32053 14.99998 
58.45297 17.32052 9.999979 
39.99995 49.28202 9.999975 
21.54699 17.32051 9.999983 
39.99995 69.28202 -2.166737e-05 
21.54699 17.32051 14.99998 
39.99995 49.28202 14.99998 
58.45297 17.32052 14.99998 
3 0 1 2 
3 3 4 2 
3 2 4 5 
3 2 5 0 
3 6 7 8 
3 8 7 9 
3 6 10 11 
3 11 10 5 
3 11 5 12 
3 12 5 4 
3 13 14 15 
3 2 7 15 
3 15 7 6 
3 15 6 13 
3 13 6 11 
3 16 8 9 
3 17 3 15 
3 15 3 2 
3 18 17 14 
3 14 17 15 
3 19 18 13 
3 13 18 14 
3 12 19 11 
3 11 19 13 
3 19 12 18 
3 18 12 4 
3 18 4 17 
3 17 4 3 
